<?xml version="1.0" encoding="UTF-8"?>
<svg version="1.1" xmlns="http://www.w3.org/2000/svg" width="575" height="251">
<path d="M0 0 C189.75 0 379.5 0 575 0 C575 82.83 575 165.66 575 251 C385.25 251 195.5 251 0 251 C0 168.17 0 85.34 0 0 Z " fill="#FEFEFE" transform="translate(0,0)"/>
<path d="M0 0 C11.54815679 1.41779351 18.06190053 8.79975013 25.4296875 17.3046875 C28.90688077 20.95098439 32.78823191 23.71777512 36.9453125 26.5390625 C37.96238281 27.26222656 37.96238281 27.26222656 39 28 C39 28.33 39 28.66 39 29 C37.71416016 29.05607422 37.71416016 29.05607422 36.40234375 29.11328125 C28.93892633 29.54240672 23.33044694 30.06647143 17.0625 34.3125 C15.40704832 36.94174678 15.67473749 38.96166545 16 42 C17.74588624 43.92838006 17.74588624 43.92838006 20.25 45.3125 C21.60351562 46.18068359 21.60351562 46.18068359 22.984375 47.06640625 C24.47710937 48.02353516 24.47710937 48.02353516 26 49 C28.19525592 50.54581501 30.34998326 52.1420731 32.5 53.75 C34.00046875 54.85601562 34.00046875 54.85601562 35.53125 55.984375 C38 58 38 58 40 61 C39.82256677 63.85667493 39.56821726 65.42573788 37.53125 67.484375 C31.60622292 71.17612264 25.49978547 74.4740117 19.29296875 77.66503906 C14.36595735 80.2083806 9.65895752 82.99394325 5 86 C2.78312284 81.94743836 2.36761158 78.04048224 1.9375 73.5 C1.85951172 72.77941406 1.78152344 72.05882813 1.70117188 71.31640625 C-0.00809781 54.33671892 -0.13936908 37.29753069 -0.0625 20.25 C-0.05746519 18.26953241 -0.05290585 16.28906355 -0.04882812 14.30859375 C-0.03800187 9.53903015 -0.02085146 4.76952987 0 0 Z " fill="#FAFAFA" transform="translate(77,52)"/>
<path d="M0 0 C0.99 0 1.98 0 3 0 C2.85816304 1.75032844 2.71136571 3.50025534 2.5625 5.25 C2.44068359 6.71179688 2.44068359 6.71179688 2.31640625 8.203125 C2.04845144 10.57171321 1.60416008 12.70376168 1 15 C2.27617188 14.83628906 3.55234375 14.67257813 4.8671875 14.50390625 C12.93347908 13.69727709 21.02849697 13.89415508 29.125 13.9375 C30.76562363 13.94252563 32.40624876 13.94708665 34.046875 13.95117188 C38.03128742 13.96209195 42.0156269 13.97929782 46 14 C46 14.99 46 15.98 46 17 C30.65576567 17.7180376 15.36115333 18.14537369 0 18 C0 19.98 0 21.96 0 24 C0.556875 24.21914063 1.11375 24.43828125 1.6875 24.6640625 C11.33973857 28.67495893 17.8462827 34.72205087 25.05908203 42.09692383 C29.12014219 46.21775768 33.36675393 49.90693239 37.9765625 53.4140625 C39.79903134 54.84248402 41.40593112 56.32470468 43 58 C42.67 58.99 42.34 59.98 42 61 C40.38931641 60.94779297 40.38931641 60.94779297 38.74609375 60.89453125 C37.30991161 60.86637082 35.87371238 60.83907309 34.4375 60.8125 C33.73302734 60.78736328 33.02855469 60.76222656 32.30273438 60.73632812 C27.12425304 60.66473622 23.54631978 61.4487865 19 64 C17.79597341 66.03537915 17.79597341 66.03537915 17 68 C18.07378906 68.72445312 19.14757812 69.44890625 20.25390625 70.1953125 C21.69025454 71.17165382 23.12644398 72.14822885 24.5625 73.125 C25.26697266 73.599375 25.97144531 74.07375 26.69726562 74.5625 C38.33164613 82.49746919 38.33164613 82.49746919 42 88 C42 91.375 42 91.375 41 95 C36.45035594 99.43500736 31.33139809 102.10750805 25.6875 104.9375 C19.70786969 107.99727072 13.93975637 111.07406075 8.49609375 115.0390625 C7 116 7 116 5 116 C4.814375 116.556875 4.62875 117.11375 4.4375 117.6875 C2.366945 121.01839283 -0.5192634 123.20822841 -4 125 C-5.32 125 -6.64 125 -8 125 C-7.4409112 121.75728494 -6.5867822 120.06942576 -4 118 C-3.34 118 -2.68 118 -2 118 C-2.0501123 117.39676407 -2.10022461 116.79352814 -2.15185547 116.17201233 C-4.49951359 87.76704589 -6.83330529 59.51827113 -6 31 C-6.64637551 32.57683892 -7.28884171 34.15528065 -7.9296875 35.734375 C-8.28788574 36.61319336 -8.64608398 37.49201172 -9.01513672 38.39746094 C-12.10509055 46.56278266 -12.85013953 55.40051156 -14 64 C-14.66 64 -15.32 64 -16 64 C-16.47666637 56.38657877 -15.96484255 49.5302238 -14.25 42.125 C-14.09305664 41.4244751 -13.93611328 40.7239502 -13.77441406 40.00219727 C-12.44422556 34.62463576 -10.60971287 28.66731656 -5.75 25.5625 C-5.1725 25.376875 -4.595 25.19125 -4 25 C-4 23.02 -4 21.04 -4 19 C-5.18964355 19.01047363 -6.37928711 19.02094727 -7.60498047 19.03173828 C-12.05921364 19.0682013 -16.51343387 19.09099536 -20.96777344 19.10986328 C-22.88804348 19.11986133 -24.80829853 19.13346421 -26.72851562 19.15087891 C-29.50394411 19.17540192 -32.27916965 19.18654531 -35.0546875 19.1953125 C-35.8998996 19.20563507 -36.74511169 19.21595764 -37.61593628 19.22659302 C-43.62907747 19.22770064 -49.14768037 18.32911989 -55 17 C-56.66585819 16.66264947 -58.33232284 16.32824041 -60 16 C-59.505 16.598125 -59.01 17.19625 -58.5 17.8125 C-57 20 -57 20 -57 23 C-60.34163899 21.61725283 -62.25766748 20.20955991 -64 17 C-63.6875 14.25 -63.6875 14.25 -63 12 C-61.54107996 12.11795524 -60.08288823 12.24491151 -58.625 12.375 C-57.81289063 12.44460937 -57.00078125 12.51421875 -56.1640625 12.5859375 C-53.51538895 12.93255404 -51.02550396 13.43257298 -48.42382812 14.01367188 C-43.24496102 15.05710177 -38.3233037 15.25965808 -33.0546875 15.1953125 C-32.15879913 15.1924826 -31.26291077 15.18965271 -30.33987427 15.18673706 C-27.51810536 15.1756684 -24.69667067 15.1505901 -21.875 15.125 C-19.94531713 15.11495294 -18.01562921 15.10583014 -16.0859375 15.09765625 C-11.390499 15.07577294 -6.69530588 15.04133752 -2 15 C-1.80341192 13.58456585 -1.61812454 12.16755969 -1.4375 10.75 C-1.33308594 9.96109375 -1.22867188 9.1721875 -1.12109375 8.359375 C-0.87628837 6.00469445 -0.87628837 6.00469445 -1.59765625 3.828125 C-1.79681641 2.92320313 -1.79681641 2.92320313 -2 2 C-1.34 1.34 -0.68 0.68 0 0 Z M-2 28 C-2.30733503 58.51544659 -2.30733503 58.51544659 -1.125 89 C-1.04652832 90.26521484 -0.96805664 91.53042969 -0.88720703 92.83398438 C-0.38120605 100.0015223 0.53722923 106.96434181 2 114 C8.92255144 110.67717531 15.55493197 106.88910659 22.1953125 103.04345703 C23.96073778 102.02270113 25.72993393 101.00877578 27.5 99.99609375 C28.5725 99.37863281 29.645 98.76117188 30.75 98.125 C31.71421875 97.57070312 32.6784375 97.01640625 33.671875 96.4453125 C36.07755922 95.07430954 36.07755922 95.07430954 38 93 C37.90703717 89.2350052 37.44945372 87.49008699 34.8828125 84.69140625 C33.51769531 83.63759766 33.51769531 83.63759766 32.125 82.5625 C30.64773437 81.41974609 30.64773437 81.41974609 29.140625 80.25390625 C25.22635124 77.44478192 21.22625149 74.82682811 17.1171875 72.3125 C15 71 15 71 14 70 C13.5625 67.25 13.5625 67.25 14 64 C19.37781972 58.4999571 23.35172621 57.95537917 30.75 57.4375 C32.50570312 57.31181641 32.50570312 57.31181641 34.296875 57.18359375 C35.18890625 57.12300781 36.0809375 57.06242187 37 57 C36.3090625 56.46117188 35.618125 55.92234375 34.90625 55.3671875 C31.66299033 52.72550019 28.57562316 49.9579986 25.5 47.125 C24.66662109 46.36896484 24.66662109 46.36896484 23.81640625 45.59765625 C21.15039053 43.14492179 18.69184463 40.69867398 16.4375 37.859375 C13.97588551 34.97171185 11.69513653 33.14439809 8.5 31.125 C7.5821875 30.52945313 6.664375 29.93390625 5.71875 29.3203125 C2.80853374 27.90701782 1.17145766 27.88768308 -2 28 Z " fill="#101010" transform="translate(79,24)"/>
<path d="M0 0 C6.80916932 5.67430776 9.59886295 11.75464448 10.53662109 20.5690918 C10.65175106 23.36564386 10.66639342 26.13892437 10.625 28.9375 C10.61484863 29.94844727 10.60469727 30.95939453 10.59423828 32.00097656 C10.43094765 39.98829354 9.54348018 47.57456807 7.80664062 55.37304688 C7.14362637 58.35312148 6.51860248 61.34047458 5.890625 64.328125 C3.78096392 74.21659878 1.64634952 84.07615666 -1.3125 93.75 C-9.1480163 117.45132425 -9.1480163 117.45132425 -7.75 141.875 C-10.125 141.625 -10.125 141.625 -12.75 140.875 C-16.42334765 135.08289552 -14.95440266 128.28559438 -13.625 121.9375 C-13.18981372 120.04279746 -12.75348935 118.14833366 -12.30664062 116.25634766 C-11.65052479 113.44943809 -11.02062782 110.63710323 -10.390625 107.82421875 C-8.16901963 97.96985374 -5.92197471 88.14645058 -3.125 78.4375 C-0.69564278 70.00188307 1.15030274 61.4894485 2.84326172 52.87841797 C3.17666879 51.23619803 3.55307674 49.60276263 3.94140625 47.97265625 C5.34386899 41.76455197 5.48570482 35.58999041 5.5625 29.25 C5.58022461 28.36650879 5.59794922 27.48301758 5.61621094 26.57275391 C5.60700059 18.36172933 4.13022614 10.94491086 -1.75 4.875 C-4.85539518 3.32230241 -7.41473902 3.16625704 -10.75 3.875 C-30.18605127 13.10133981 -39.7301422 34.43705903 -48.97705078 52.64233398 C-54.88331031 64.25781502 -61.22359232 75.59513924 -67.75 86.875 C-69.07 86.875 -70.39 86.875 -71.75 86.875 C-71.93322878 81.65637279 -71.31536708 76.97898062 -70.0625 71.9375 C-69.88388428 71.20023682 -69.70526855 70.46297363 -69.52124023 69.70336914 C-67.77687522 62.67418533 -65.64308005 55.78760066 -63.40429688 48.90283203 C-62.26147738 45.36094446 -61.16551709 41.80444066 -60.0625 38.25 C-58.97502286 34.75023786 -57.88919588 31.26061685 -56.64453125 27.8125 C-55.68295473 24.65483388 -55.34427256 21.78908837 -55.125 18.5 C-55.05023438 17.44039062 -54.97546875 16.38078125 -54.8984375 15.2890625 C-54.84945313 14.49242188 -54.80046875 13.69578125 -54.75 12.875 C-53.76 13.205 -52.77 13.535 -51.75 13.875 C-51.69486588 15.54127552 -51.65670707 17.20811412 -51.625 18.875 C-51.60179687 19.803125 -51.57859375 20.73125 -51.5546875 21.6875 C-52.07688339 30.2097369 -55.46319091 38.58809408 -58.0078125 46.68359375 C-60.58199485 55.00452529 -62.69521642 63.41428435 -64.75 71.875 C-64.31768066 71.02494385 -63.88536133 70.1748877 -63.43994141 69.29907227 C-32.07288996 7.7056392 -32.07288996 7.7056392 -13.79296875 -0.50390625 C-9.02297925 -1.95405602 -4.6050029 -1.88386482 0 0 Z " fill="#0C0C0C" transform="translate(529.75,88.125)"/>
<path d="M0 0 C5.94531284 2.12332601 7.35923584 6.89717393 10 12.34375 C10.515625 13.4059375 11.03125 14.468125 11.5625 15.5625 C12.02785156 16.56925781 12.49320313 17.57601562 12.97265625 18.61328125 C14.55688265 21.34819895 15.96613446 22.4536421 18.5 24.25 C20.54367839 30.38103517 19.56808374 36.97500803 18.5 43.25 C18.90992188 42.816875 19.31984375 42.38375 19.7421875 41.9375 C20.55042969 41.1021875 20.55042969 41.1021875 21.375 40.25 C21.90867188 39.693125 22.44234375 39.13625 22.9921875 38.5625 C24.5 37.25 24.5 37.25 26.5 37.25 C22.79292406 45.78399774 13.89477756 52.65416936 5.5 56.25 C2.32563503 57.00397997 0.82111409 56.87986647 -2.5 56.25 C-6.31782571 52.63311249 -8.76758346 48.28947093 -9.0625 43 C-8.91829715 38.11312579 -7.13538735 35.61459604 -3.7890625 32.171875 C-0.32532205 29.26375162 3.43118052 26.95739216 7.33984375 24.6953125 C8.05269531 24.21835938 8.76554687 23.74140625 9.5 23.25 C9.5 20.20033535 8.00324347 18.07213675 6.625 15.375 C6.09132812 14.32570313 5.55765625 13.27640625 5.0078125 12.1953125 C4.51023438 11.22335938 4.01265625 10.25140625 3.5 9.25 C3.15453125 8.48429687 2.8090625 7.71859375 2.453125 6.9296875 C1.584691 5.00136533 1.584691 5.00136533 -0.875 4.25 C-3.65952058 3.95992208 -3.65952058 3.95992208 -5.6875 6.1875 C-6.5846875 7.2084375 -6.5846875 7.2084375 -7.5 8.25 C-8.16 8.25 -8.82 8.25 -9.5 8.25 C-9.18087403 5.27149096 -8.43832742 4.18288572 -6.375 1.9375 C-3.5 0.25 -3.5 0.25 0 0 Z " fill="#0E0E0E" transform="translate(143.5,94.75)"/>
<path d="M0 0 C1.32 0.33 2.64 0.66 4 1 C3.90912109 1.92337158 3.81824219 2.84674316 3.72460938 3.7980957 C3.38800231 7.22523028 3.05269256 10.65248663 2.71826172 14.07983398 C2.573274 15.56295784 2.42776991 17.0460313 2.28173828 18.52905273 C2.0718819 20.66116497 1.8638854 22.79345172 1.65625 24.92578125 C1.53056641 26.20880127 1.40488281 27.49182129 1.27539062 28.8137207 C0.95694543 31.96511649 0.95694543 31.96511649 1 35 C1.15855469 34.10539062 1.31710937 33.21078125 1.48046875 32.2890625 C3.55747035 21.52537465 6.04835993 12.21210231 14.94921875 5.171875 C17 4 17 4 20.6875 3.5625 C25.27557739 5.55355245 27.05919164 8.47679374 29 13 C29.96413938 16.89384379 30.12130147 20.52974483 30.11352539 24.53442383 C30.11344986 25.83539505 30.11337433 27.13636627 30.11329651 28.47676086 C30.10819062 29.88685139 30.10297464 31.29694151 30.09765625 32.70703125 C30.09578979 34.15720063 30.09436696 35.60737065 30.09336853 37.05754089 C30.0895613 40.86332966 30.07974642 44.66907991 30.06866455 48.47485352 C30.05841177 52.36278767 30.05386264 56.25072808 30.04882812 60.13867188 C30.03812246 67.75913209 30.0210677 75.37956064 30 83 C29.34 83 28.68 83 28 83 C25.4849697 68.66039984 25.6255358 54.30771445 25.54370117 39.79003906 C25.52197595 36.5498769 25.4825812 33.31027755 25.44140625 30.0703125 C25.44129044 29.0920047 25.44117462 28.1136969 25.4410553 27.10574341 C25.35806341 21.3074649 25.11951872 15.0730313 22 10 C20.09046932 9.02231621 20.09046932 9.02231621 18 9 C10.112042 15.11316745 7.29583392 25.28305154 5.81640625 34.75390625 C5.61080078 36.02041016 5.40519531 37.28691406 5.19335938 38.59179688 C4.87557524 40.58132707 4.56114325 42.57125742 4.25268555 44.56225586 C3.94995853 46.50262375 3.63333431 48.44080724 3.31640625 50.37890625 C3.13537354 51.5294751 2.95434082 52.68004395 2.76782227 53.86547852 C1.98273921 57.07046464 0.84503857 59.28502591 -1 62 C-2.32 61.67 -3.64 61.34 -5 61 C-5.19095737 50.67723201 -4.66280093 40.65129888 -3.5625 30.375 C-3.29172507 27.75794088 -3.0221812 25.14075408 -2.75390625 22.5234375 C-2.62387207 21.27143555 -2.49383789 20.01943359 -2.35986328 18.72949219 C-1.90267326 13.99134104 -1.56664759 9.24868263 -1.26147461 4.49853516 C-1 2 -1 2 0 0 Z " fill="#0A0A0A" transform="translate(406,106)"/>
<path d="M0 0 C0.99 0.33 1.98 0.66 3 1 C3.60172923 10.47723538 1.36400058 18.90281921 -1 28 C-0.49210937 27.27554688 0.01578125 26.55109375 0.5390625 25.8046875 C10.65241128 11.60054595 10.65241128 11.60054595 15.6875 10.3125 C18 11 18 11 19.6262207 13.1159668 C21.28336974 16.59489012 21.34375842 18.98894627 21.29296875 22.83203125 C21.28330078 24.12431641 21.27363281 25.41660156 21.26367188 26.74804688 C21.23860985 28.1028707 21.21321506 29.45768841 21.1875 30.8125 C21.17244013 32.18683445 21.15875401 33.56118468 21.14648438 34.93554688 C21.11116628 38.29076632 21.06183851 41.64518166 21 45 C24.21921817 40.27354037 27.34464361 35.60690256 29.9375 30.5 C34.45567801 22.09736245 40.90081339 11.90540785 50.109375 8.13671875 C52.1875 7.6875 52.1875 7.6875 56 8 C61.37269272 12.32151371 62.11371955 17.39281917 63 24 C63.2117206 27.8812146 63.19243614 31.73964063 63.125 35.625 C63.11597656 36.62917969 63.10695313 37.63335937 63.09765625 38.66796875 C63.07437746 41.11224126 63.04168487 43.55598408 63 46 C62.34 46 61.68 46 61 46 C60.01655644 40.07841433 59.09904188 34.17137977 58.4921875 28.19921875 C58.40952637 27.38952637 58.32686523 26.57983398 58.24169922 25.74560547 C58.08193444 24.13730668 57.92977897 22.52823187 57.78564453 20.91845703 C57.4834766 16.49724627 57.4834766 16.49724627 55 13 C51.57262108 12.93279649 49.06365577 13.17473934 46.29199219 15.32519531 C41.86955178 19.7681694 38.58356695 24.40548407 35.4375 29.8125 C34.96570313 30.60205078 34.49390625 31.39160156 34.0078125 32.20507812 C32.00372599 35.56454545 30.03325372 38.94283047 28.06640625 42.32421875 C27.54949219 43.20722656 27.03257812 44.09023437 26.5 45 C26.0771875 45.7425 25.654375 46.485 25.21875 47.25 C24 49 24 49 21 51 C19.68 50.67 18.36 50.34 17 50 C17 38.12 17 26.24 17 14 C12.2827783 16.74600539 12.2827783 16.74600539 9.1328125 20.51953125 C8.64264648 21.2060376 8.15248047 21.89254395 7.64746094 22.59985352 C7.14504883 23.33002686 6.64263672 24.0602002 6.125 24.8125 C5.60196289 25.56136475 5.07892578 26.31022949 4.54003906 27.08178711 C-0.01892958 33.74755187 -3.68740116 40.63996525 -7 48 C-7.99 48 -8.98 48 -10 48 C-8.89809515 41.96852084 -7.55087074 36.00966739 -6.0625 30.0625 C-5.88968506 29.3713208 -5.71687012 28.6801416 -5.53881836 27.96801758 C-4.53976442 24.01609027 -3.45612489 20.10049106 -2.3125 16.1875 C-0.81729815 10.84052817 -0.31021349 5.53035772 0 0 Z " fill="#0C0C0C" transform="translate(277,104)"/>
<path d="M0 0 C0.66 0.33 1.32 0.66 2 1 C1.0459184 6.37755081 -0.13793159 11.57907034 -1.67578125 16.82202148 C-7.46558237 36.62678213 -11.23659281 57.44238463 -13 78 C-12.43152344 77.14277344 -11.86304688 76.28554687 -11.27734375 75.40234375 C-6.30939986 68.00877262 -1.52385289 61.01590192 6 56 C8.5625 55.6875 8.5625 55.6875 11 56 C15.85759427 63.28639141 12.47306206 74.42679705 11.0625 82.5625 C9.33388969 93.05892244 8.27466516 103.37045831 8 114 C7.34 114 6.68 114 6 114 C1.19064064 104.38128128 5.4544418 87.57786626 7.5769043 77.60058594 C8.76631427 71.93168315 9.18794697 66.79698926 9 61 C2.4095431 62.36552823 -1.58430793 68.43603744 -5.22753906 73.81103516 C-6.82733134 76.30181038 -8.40100989 78.80235185 -9.9050293 81.35229492 C-11.87741232 84.61732349 -13.31336073 86.74074344 -17 88 C-18.59063868 86.40936132 -18.21155195 84.83607483 -18.25390625 82.62109375 C-18.16619429 73.97659239 -16.46777314 65.54459959 -14.9375 57.0625 C-14.78204712 56.18570587 -14.62659424 55.30891174 -14.46643066 54.4055481 C-5.82527 5.82527 -5.82527 5.82527 0 0 Z " fill="#0F0F0F" transform="translate(235,42)"/>
<path d="M0 0 C-0.28078304 3.33984038 -0.63653485 6.66823616 -1 10 C-1.08765625 11.05445313 -1.1753125 12.10890625 -1.265625 13.1953125 C-2.15101303 21.02907181 -2.15101303 21.02907181 -4.44140625 23.6484375 C-8.39355097 26.14173685 -12.37919674 26.79975441 -17 26 C-20.01367113 23.08354407 -20.26552724 20.0281218 -20.5 16 C-20.3647944 12.47945426 -20.18805299 11.26954261 -18.125 8.3125 C-17.09375 7.549375 -16.0625 6.78625 -15 6 C-14.21367187 5.37738281 -13.42734375 4.75476563 -12.6171875 4.11328125 C-5.07815978 -1.61412936 -5.07815978 -1.61412936 0 0 Z " fill="#F7F7F7" transform="translate(159,122)"/>
<path d="M0 0 C0 0.66 0 1.32 0 2 C-0.73605469 2.03738281 -1.47210938 2.07476562 -2.23046875 2.11328125 C-9.70875892 2.41568187 -9.70875892 2.41568187 -16 6 C-20.46885025 11.88800587 -22.65633557 18.212745 -24.6875 25.25 C-24.98857666 26.27343506 -25.28965332 27.29687012 -25.59985352 28.35131836 C-28.99892058 40.13593924 -30.32717011 50.71294464 -30 63 C-24.78382949 60.12713451 -20.93761438 57.2157668 -17.32421875 52.453125 C-16 51 -16 51 -13 50 C-14.89301495 56.24694932 -19.12873137 61.0840395 -24.625 64.5 C-28 66 -28 66 -30.3125 65.9375 C-32 65 -32 65 -34 62 C-35.11806007 49.50403453 -32.43150464 38.22930753 -29.125 26.3125 C-28.88056152 25.42103271 -28.63612305 24.52956543 -28.38427734 23.61108398 C-25.76634823 14.47384797 -22.38525657 5.59017104 -14.1875 0.125 C-9.30273629 -1.59903425 -4.98079383 -1.66026461 0 0 Z " fill="#0E0E0E" transform="translate(378,120)"/>
<path d="M0 0 C0 0.66 0 1.32 0 2 C-0.94101563 2.23074219 -1.88203125 2.46148437 -2.8515625 2.69921875 C-12.4119691 5.04957057 -12.4119691 5.04957057 -20 11 C-23.00407351 19.47985307 -21.5553442 29.35616634 -17.875 37.3046875 C-17.58625 37.86414063 -17.2975 38.42359375 -17 39 C-12.545 38.505 -12.545 38.505 -8 38 C-10.125 40.5625 -10.125 40.5625 -13 43 C-16.0625 43.125 -16.0625 43.125 -19 42 C-23.67983498 37.58015585 -24.82138179 32.33827477 -25.30078125 26.0625 C-25.31515872 24.70840403 -25.31898543 23.35415677 -25.3125 22 C-25.32861328 21.32710937 -25.34472656 20.65421875 -25.36132812 19.9609375 C-25.3671328 13.94729125 -24.06230168 9.18361354 -19.875 4.75 C-13.43904964 0.832465 -7.46755333 -0.40732109 0 0 Z " fill="#0D0D0D" transform="translate(198,105)"/>
<path d="M0 0 C3.63820044 -0.33074549 5.3773086 -0.48805542 8.3125 1.8125 C11.45770123 5.8896127 11.35577426 10.05473777 11 15 C9.99054697 20.82729701 7.93486882 26.42757779 6 32 C6.66 32 7.32 32 8 32 C8 32.66 8 33.32 8 34 C7.01 34 6.02 34 5 34 C3.13459373 38.70406799 1.63156995 42.94744036 1 48 C1.99 48 2.98 48 4 48 C3.67 48.99 3.34 49.98 3 51 C1.0625 50.625 1.0625 50.625 -1 50 C-2.90630051 46.18739897 -2.51944969 41.81565035 -1.37207031 37.80517578 C-0.51323274 35.52920588 0.40913322 33.29510872 1.375 31.0625 C4.86796616 22.83415085 8.16336883 15.01403681 6 6 C4.33045181 2.77595022 4.33045181 2.77595022 1.375 2.3125 C0.59125 2.209375 -0.1925 2.10625 -1 2 C-0.67 1.34 -0.34 0.68 0 0 Z " fill="#121212" transform="translate(374,108)"/>
<path d="M0 0 C0.33 0.66 0.66 1.32 1 2 C-0.24066563 3.6321378 -1.49291688 5.25547321 -2.75 6.875 C-3.44609375 7.77992188 -4.1421875 8.68484375 -4.859375 9.6171875 C-6.86566945 11.85047147 -8.24307341 12.91958282 -11 14 C-9.52186113 10.77026656 -7.68253503 8.11002902 -5.5 5.3125 C-4.8915625 4.52488281 -4.283125 3.73726562 -3.65625 2.92578125 C-2 1 -2 1 0 0 Z " fill="#131313" transform="translate(364,170)"/>
<path d="M0 0 C1.258125 -0.020625 2.51625 -0.04125 3.8125 -0.0625 C4.52019531 -0.07410156 5.22789062 -0.08570312 5.95703125 -0.09765625 C8 0 8 0 11 1 C11 1.66 11 2.32 11 3 C7.7 3 4.4 3 1 3 C0.67 2.01 0.34 1.02 0 0 Z " fill="#252525" transform="translate(367,119)"/>
<path d="M0 0 C0.66 0.33 1.32 0.66 2 1 C2 3 2 3 0.125 5.125 C-2 7 -2 7 -4 7 C-3.43628586 3.73045798 -2.50037734 2.17424117 0 0 Z " fill="#1E1E1E" transform="translate(138,96)"/>
<path d="M0 0 C0.33 0.66 0.66 1.32 1 2 C-0.32 3.32 -1.64 4.64 -3 6 C-3 4.68 -3 3.36 -3 2 C-2.01 1.34 -1.02 0.68 0 0 Z " fill="#2B2B2B" transform="translate(364,170)"/>
<path d="M0 0 C0.33 0 0.66 0 1 0 C2.07421875 5.859375 2.07421875 5.859375 2 8 C1.01 9.32 0.02 10.64 -1 12 C-0.67 8.04 -0.34 4.08 0 0 Z " fill="#AEAEAE" transform="translate(222,110)"/>
<path d="M0 0 C0.33 0.66 0.66 1.32 1 2 C1.66 2.33 2.32 2.66 3 3 C1.02 5.97 1.02 5.97 -1 9 C-2.60031344 5.79937313 -1.03173691 3.27728194 0 0 Z " fill="#C4C4C4" transform="translate(277,124)"/>
</svg>
